<?xml version="1.0" encoding="UTF-8"?>
<svg xmlns="http://www.w3.org/2000/svg" xmlns:xlink="http://www.w3.org/1999/xlink"
     width="695.0" height="343.75" viewBox="-28.0 0 556.0 275.0">
<defs>
</defs>
<path d="M10,25.0 L25,25.0" stroke-width="3" stroke="darkred" stroke-linejoin="miter" fill="none" />
<path d="M10,75.0 L25,75.0" stroke-width="3" stroke="darkred" stroke-linejoin="miter" fill="none" />
<path d="M10,125.0 L25,125.0" stroke-width="3" stroke="darkred" stroke-linejoin="miter" fill="none" />
<path d="M10,175.0 L25,175.0" stroke-width="3" stroke="darkred" stroke-linejoin="miter" fill="none" />
<path d="M10,225.0 L25,225.0" stroke-width="3" stroke="darkred" stroke-linejoin="miter" fill="none" />
<path d="M25,25 L125,25" stroke="darkred" stroke-width="3" fill="none" />
<path d="M25,75 L125,75" stroke="darkred" stroke-width="3" fill="none" />
<path d="M25,125 L125,125" stroke="darkred" stroke-width="3" fill="none" />
<path d="M25,175 L125,175" stroke="darkred" stroke-width="3" fill="none" />
<path d="M25,225 L125,225" stroke="darkred" stroke-width="3" fill="none" />
<path d="M27.5,2.5 L122.5,2.5 L122.5,247.5 L27.5,247.5 Z" stroke="darkred" fill="lightpink" stroke-linejoin="miter" />
<text x="35" y="16" font-size="8" text-anchor="start" font-weight="bold">CPLX</text>
<path d="M125,25 L225,25" stroke="darkred" stroke-width="3" fill="none" />
<path d="M125,75 L225,75" stroke="darkred" stroke-width="3" fill="none" />
<path d="M125,125 L225,125" stroke="darkred" stroke-width="3" fill="none" />
<path d="M125,175 L225,175" stroke="darkred" stroke-width="3" fill="none" />
<path d="M125,225 L225,225" stroke="darkred" stroke-width="3" fill="none" />
<path d="M127.5,2.5 L222.5,2.5 L222.5,247.5 L127.5,247.5 Z" stroke="darkred" fill="lightpink" stroke-linejoin="miter" />
<text x="135" y="16" font-size="8" text-anchor="start" font-weight="bold">CPLX</text>
<path d="M225,25 L275,25" stroke="darkred" stroke-width="3" fill="none" />
<path d="M230,40 L239,40 L253,10 L244,10 L230,40 L239,40 Z" stroke="black" fill="gray" stroke-linejoin="miter" />
<text x="247" y="38" font-size="7" text-anchor="start">Φ=input1</text>
<path d="M225,75 L275,75" stroke="darkred" stroke-width="3" fill="none" />
<path d="M230,90 L239,90 L253,60 L244,60 L230,90 L239,90 Z" stroke="black" fill="gray" stroke-linejoin="miter" />
<text x="247" y="88" font-size="7" text-anchor="start">Φ=input2</text>
<path d="M225,125 L275,125" stroke="darkred" stroke-width="3" fill="none" />
<path d="M230,140 L239,140 L253,110 L244,110 L230,140 L239,140 Z" stroke="black" fill="gray" stroke-linejoin="miter" />
<text x="247" y="138" font-size="7" text-anchor="start">Φ=input3</text>
<path d="M225,175 L275,175" stroke="darkred" stroke-width="3" fill="none" />
<path d="M230,190 L239,190 L253,160 L244,160 L230,190 L239,190 Z" stroke="black" fill="gray" stroke-linejoin="miter" />
<text x="247" y="188" font-size="7" text-anchor="start">Φ=input4</text>
<path d="M225,225.0 L275,225.0" stroke="darkred" stroke-width="3" fill="none" />
<path d="M275,25 L375,25" stroke="darkred" stroke-width="3" fill="none" />
<path d="M275,75 L375,75" stroke="darkred" stroke-width="3" fill="none" />
<path d="M275,125 L375,125" stroke="darkred" stroke-width="3" fill="none" />
<path d="M275,175 L375,175" stroke="darkred" stroke-width="3" fill="none" />
<path d="M275,225 L375,225" stroke="darkred" stroke-width="3" fill="none" />
<path d="M277.5,2.5 L372.5,2.5 L372.5,247.5 L277.5,247.5 Z" stroke="darkred" fill="lightpink" stroke-linejoin="miter" />
<text x="285" y="16" font-size="8" text-anchor="start" font-weight="bold">CPLX</text>
<path d="M375,25 L475,25" stroke="darkred" stroke-width="3" fill="none" />
<path d="M375,75 L475,75" stroke="darkred" stroke-width="3" fill="none" />
<path d="M375,125 L475,125" stroke="darkred" stroke-width="3" fill="none" />
<path d="M375,175 L475,175" stroke="darkred" stroke-width="3" fill="none" />
<path d="M375,225 L475,225" stroke="darkred" stroke-width="3" fill="none" />
<path d="M377.5,2.5 L472.5,2.5 L472.5,247.5 L377.5,247.5 Z" stroke="darkred" fill="lightpink" stroke-linejoin="miter" />
<text x="385" y="16" font-size="8" text-anchor="start" font-weight="bold">CPLX</text>
<path d="M475,25.0 L490,25.0" stroke-width="3" stroke="darkred" stroke-linejoin="miter" fill="none" />
<path d="M475,75.0 L490,75.0" stroke-width="3" stroke="darkred" stroke-linejoin="miter" fill="none" />
<path d="M475,125.0 L490,125.0" stroke-width="3" stroke="darkred" stroke-linejoin="miter" fill="none" />
<path d="M475,175.0 L490,175.0" stroke-width="3" stroke="darkred" stroke-linejoin="miter" fill="none" />
<path d="M475,225.0 L490,225.0" stroke-width="3" stroke="darkred" stroke-linejoin="miter" fill="none" />
<text x="500" y="28.0" font-size="6" text-anchor="end">0</text>
<text x="500" y="78.0" font-size="6" text-anchor="end">1</text>
<text x="500" y="128.0" font-size="6" text-anchor="end">2</text>
<text x="500" y="178.0" font-size="6" text-anchor="end">3</text>
<text x="500" y="228.0" font-size="6" text-anchor="end">4</text>
<text x="0" y="28.0" font-size="6" text-anchor="start">0</text>
<text x="0" y="78.0" font-size="6" text-anchor="start">1</text>
<text x="0" y="128.0" font-size="6" text-anchor="start">2</text>
<text x="0" y="178.0" font-size="6" text-anchor="start">3</text>
<text x="0" y="228.0" font-size="6" text-anchor="start">4</text>
</svg>